<svg xmlns="http://www.w3.org/2000/svg"
        width="850pt" height="868pt" viewBox="0 0 850 868"
        preserveAspectRatio="xMidYMid meet">
    <g transform="translate(425,434) scale(0.1,-0.1)" fill="#000000" stroke="none">
        <use class="petal petal-0" href="#petal" transform="rotate(0) rotate(180,0,3800) translate(0,3000)"/>
        <use class="petal petal-1" href="#petal" transform="rotate(45) rotate(180,0,3800) translate(0,3000)"/>
        <use class="petal petal-2" href="#petal" transform="rotate(90) rotate(180,0,3800) translate(0,3000)"/>
        <use class="petal petal-3" href="#petal" transform="rotate(135) rotate(180,0,3800) translate(0,3000)"/>
        <use class="petal petal-4" href="#petal" transform="rotate(180) rotate(180,0,3800) translate(0,3000)"/>
        <use class="petal petal-5" href="#petal" transform="rotate(225) rotate(180,0,3800) translate(0,3000)"/>
        <use class="petal petal-6" href="#petal" transform="rotate(270) rotate(180,0,3800) translate(0,3000)"/>
        <use class="petal petal-7" href="#petal" transform="rotate(315) rotate(180,0,3800) translate(0,3000)"/>
    </g>
    <defs>
        <path transform="scale(1)" id="petal"
            d="M0 3800 c-69 -137 -106 -353 -106 -620 0 -666 275 -1454 682
        -1961 324 -403 681 -560 967 -425 352 166 476 738 302 1384 l-22 81 -86 40
        c-47 22 -87 39 -89 37 -2 -2 2 -49 9 -103 19 -156 16 -588 -5 -704 -42 -226
        -90 -345 -176 -430 -37 -36 -70 -60 -97 -68 -315 -93 -811 399 -1125 1113
        -121 276 -221 613 -259 873 -47 327 -36 532 47 815 11 37 -18 15 -42 -32z"/>
    </defs>
</svg>